# xmcd
# Copyright (C) 1995-1998 Ti Kan
#
# Track frame offsets:
#       150
#       11108
#       28555
#       47050
#       57732
#       78080
#       97996
#       115490
#       137075
#       153526
#       163450
#       180705
#       193627
#       210862
#       225645
#       239458
#
# Disc length: 3526 seconds
#
# Revision: 0
# Processed by: cddbd v1.5.2PL0 Copyright (c) Steve Scherf et al.
# Submitted via: CD-Transfer v1.0
#
DISCID=d80dc410
DTITLE=Alberts - Stones, Cottages and Courious People
DYEAR=1900
DGENRE=
TTITLE0=Hey Good Loocking
TTITLE1=The World Is Changing
TTITLE2=Everybody`s Talking
TTITLE3=Good Time Feeling
TTITLE4=Will You Stay
TTITLE5=And The Night Stood Still
TTITLE6=Cèst La Vie
TTITLE7=Should I Go Now
TTITLE8=Rising Moon
TTITLE9=Walking After Mitdnight
TTITLE10=Are You The One
TTITLE11=That`ll Be The Day
TTITLE12=Schlof Lei In
TTITLE13=Going Up The Country
TTITLE14=Lousiana
TTITLE15=I Shall Be Released
EXTD=
EXTT0=
EXTT1=
EXTT2=
EXTT3=
EXTT4=
EXTT5=
EXTT6=
EXTT7=
EXTT8=
EXTT9=
EXTT10=
EXTT11=
EXTT12=
EXTT13=
EXTT14=
EXTT15=
PLAYORDER=
